<?xml version="1.0" encoding="UTF-8" standalone="no"?>
<svg
   width="616.91986"
   height="697.12292"
   viewBox="0 0 47.566002 53.749851"
   version="1.1"
   id="svg6"
   sodipodi:docname="utbm-pastille.svg"
   inkscape:version="1.4.2 (ebf0e940d0, 2025-05-08)"
   xmlns:inkscape="http://www.inkscape.org/namespaces/inkscape"
   xmlns:sodipodi="http://sodipodi.sourceforge.net/DTD/sodipodi-0.dtd"
   xmlns="http://www.w3.org/2000/svg"
   xmlns:svg="http://www.w3.org/2000/svg">
  <defs
     id="defs6" />
  <sodipodi:namedview
     id="namedview6"
     pagecolor="#505050"
     bordercolor="#ffffff"
     borderopacity="1"
     inkscape:showpageshadow="0"
     inkscape:pageopacity="0"
     inkscape:pagecheckerboard="1"
     inkscape:deskcolor="#505050"
     inkscape:zoom="0.4672"
     inkscape:cx="485.87329"
     inkscape:cy="385.27397"
     inkscape:window-width="2560"
     inkscape:window-height="1379"
     inkscape:window-x="2160"
     inkscape:window-y="1230"
     inkscape:window-maximized="1"
     inkscape:current-layer="svg6" />
  <path
     d="m 25.837,12.358851 c -6.292,0.758 -12.082,0.729 -16.406,0.074 l 1.498,10.986 c 2.854,-0.249 6.926,-0.625 9.814,-0.983 12.432,-1.545 22.228,-6.109 21.8,-9.772 -0.087,-0.744 -0.592,-1.406 -1.437,-1.979 3.815,0.731 6.237,2.01 6.442,3.707 0.442,3.664 -9.605,7.887 -22.44,9.432 -5.222,0.629 -10.097,0.715 -14.076,0.353 l 1.487,10.907 c 2.647,-0.238 5.839,-0.545 8.224,-0.842 12.432,-1.545 22.228,-6.109 21.8,-9.773 -0.087,-0.744 -0.592,-1.406 -1.437,-1.979 3.815,0.731 6.237,2.011 6.442,3.708 0.442,3.666 -9.605,7.888 -22.44,9.431 -4.531,0.547 -8.799,0.684 -12.45,0.473 l 1.292,9.477 h 4.537 a 70.5,70.5 0 0 0 2.32,-0.246 c 12.433,-1.547 22.164,-5.77 21.736,-9.432 -0.087,-0.744 -0.592,-1.408 -1.437,-1.98 3.815,0.732 6.237,2.01 6.442,3.709 0.339,2.807 -5.484,5.941 -13.998,7.949 h 14.016 v -40.678 c -2.487,3.097 -11.159,6.185 -21.729,7.458 z"
     fill-rule="evenodd"
     clip-rule="evenodd"
     fill="#147cc2"
     id="path4"
     style="fill:#268bd2" />
  <path
     fill-rule="evenodd"
     clip-rule="evenodd"
     fill="#0080c0"
     d="m 3.894,24.921851 v 20.654 h 5.998 z"
     id="path5"
     style="fill:#268bd2" />
  <path
     d="M 19.484,0.41485099 C 7.883,1.463851 -0.071,4.120851 0.012,6.863851 c 0.002,0.086 0.015,0.171 0.036,0.256 L 0,7.114851 l 13.962,46.635 -6.226,-43.75 c 3.658,0.384 8.339,0.39 13.431,-0.07 11.6,-1.049 20.938,-4.122 20.854,-6.864 C 41.938,0.32385099 31.084,-0.63314901 19.484,0.41485099 Z"
     fill-rule="evenodd"
     clip-rule="evenodd"
     fill="#61656e"
     id="path6"
     style="fill:#586e75" />
</svg>
